<svg width="77" height="77" viewBox="0 0 77 77" fill="none" xmlns="http://www.w3.org/2000/svg">
<path d="M76.7695 76.7598L-0.000488281 76.7598L-0.000481571 -0.000250852L8.11957 -0.000250142L8.11957 60.6298L12.1295 60.6298L12.1295 56.5298L16.1395 56.5298L16.1395 52.5098L20.2396 52.5098L20.2396 48.4998L24.2495 48.4998L24.2495 44.3998L28.2695 44.3998L28.2695 40.3898L32.3696 40.3898L32.3696 36.3798L36.3795 36.3798L36.3795 32.3597L40.3895 32.3597L40.3895 28.2598L44.4896 28.2598L44.4896 24.2498L48.4995 24.2498L48.4995 20.2397L52.5195 20.2397L52.5195 16.1398L56.5295 16.1398L56.5295 12.1298L60.6295 12.1298L60.6295 8.11975L64.6395 8.11975L64.6395 4.01977L68.6495 4.01977L68.6495 -0.00024485L76.7695 -0.000244141L76.7695 8.11975L72.7495 8.11975L72.7495 12.1298L68.6495 12.1298L68.6495 16.1398L64.6395 16.1398L64.6395 20.2397L60.6295 20.2397L60.6295 24.2498L56.5295 24.2498L56.5295 28.2598L52.5195 28.2598L52.5195 32.3597L48.4995 32.3597L48.4995 36.3798L44.4896 36.3798L44.4896 40.3898L40.3895 40.3898L40.3895 44.3998L36.3795 44.3998L36.3795 48.4998L32.3696 48.4998L32.3696 52.5098L28.2695 52.5098L28.2695 56.5298L24.2495 56.5298L24.2495 60.6298L20.2396 60.6298L20.2396 64.6398L16.1395 64.6398L16.1395 68.6497L76.7695 68.6497L76.7695 76.7598Z" fill="#FCF3FF"/>
</svg>
