<svg width="77" height="77" viewBox="0 0 77 77" fill="none" xmlns="http://www.w3.org/2000/svg">
<path d="M0 0H76.77V76.76H68.65V16.13H64.64V20.23H60.63V24.25H56.53V28.26H52.52V32.36H48.5V36.37H44.4V40.38H40.39V44.4H36.38V48.5H32.28V52.51H28.27V56.52H24.25V60.62H20.24V64.63H16.14V68.64H12.13V72.74H8.12V76.76H0V68.64H4.02002V64.63H8.12V60.62H12.13V56.52H16.14V52.51H20.24V48.5H24.25V44.4H28.27V40.38H32.28V36.37H36.38V32.36H40.39V28.26H44.4V24.25H48.5V20.23H52.52V16.13H56.53V12.12H60.63V8.11002H0V0Z" fill="#FCF3FF"/>
</svg>
