<svg width="116" height="149" viewBox="0 0 116 149" fill="none" xmlns="http://www.w3.org/2000/svg">
<path d="M109.537 103.627V97.1293H96.61V90.6312H77.3333V77.749H70.87V71.251H64.4066V64.7529H70.87V51.8707H77.3333V38.8745H83.7967V32.3764H90.1466V19.3803H96.61V0H83.7967V12.9962H77.3333V19.3803H70.87V32.3764H64.4066V45.3726H51.5934V32.3764H45.13V25.8783H38.6667V12.9962H32.2033V0H19.2766V19.3803H25.74V32.3764H32.2033V38.8745H38.6667V51.8707H45.13V77.749H38.6667V90.6312H19.2766V97.1293H6.46334V103.627H0V136.004H6.46334V142.502H12.9267V149H38.6667V142.502H45.13V136.004H51.5934V103.627H45.13V97.1293H51.5934V84.2471H64.4066V97.1293H70.87V103.627H64.4066V136.004H70.87V142.502H77.3333V149H103.073V142.502H109.537V136.004H116V103.627H109.537ZM38.6667 129.506H32.2033V136.004H19.2766V129.506H12.9267V110.125H38.6667V129.506ZM103.073 129.506H90.1466V136.004H83.7967V129.506H77.3333V110.125H96.61V116.624H103.073V129.506Z" fill="#FCF3FF"/>
</svg>
