<svg width="451" height="133" viewBox="0 0 451 133" fill="none" xmlns="http://www.w3.org/2000/svg">
<path d="M10.34 122.41V103.73H19.68V66.37H29.02V38.35H38.36V10.34H29.02V1H122.41V29.02H113.07V19.68H103.73V10.34H57.03V38.36H47.69V66.38H75.71V57.04H85.05V85.06H75.71V75.72H38.35V103.74H29.01V122.42H38.35V131.76H1V122.42H10.34V122.41Z" fill="#FCF3FF" stroke="#FCF3FF" stroke-width="2" stroke-miterlimit="10"/>
<path d="M103.73 122.41V85.0496H113.07V66.3696H122.41V57.0296H141.09V66.3696H131.75V85.0496H122.41V113.07H131.75V122.41H150.43V131.75H113.07V122.41H103.73ZM159.76 47.6996V57.0396H141.08V47.6996H159.76ZM159.76 113.07V122.41H150.42V113.07H159.76ZM169.1 103.73V94.3896H178.44V75.7096H187.78V47.6896H159.76V38.3496H206.46V75.7096H197.12V103.73H187.78V122.41H197.12V131.75H169.1V113.07H159.76V103.73H169.1ZM206.46 113.07V122.41H197.12V113.07H206.46Z" fill="#FCF3FF"/>
<path d="M159.76 113.07V122.41H150.42V113.07H159.76ZM159.76 113.07H169.1V131.75H197.12V122.41M159.76 113.07V103.73H169.1V94.3896H178.44V75.7096H187.78V47.6896H159.76V38.3496H206.46V75.7096H197.12V103.73H187.78V122.41H197.12M197.12 122.41H206.46V113.07H197.12V122.41ZM103.73 122.41V85.0496H113.07V66.3696H122.41V57.0296H141.09V66.3696H131.75V85.0496H122.41V113.07H131.75V122.41H150.43V131.75H113.07V122.41H103.73ZM159.76 47.6996V57.0396H141.08V47.6996H159.76Z" stroke="#FCF3FF" stroke-width="2" stroke-miterlimit="10"/>
<path d="M234.47 122.41V103.73H243.81V75.71H253.15V38.35H262.49V10.34H253.15V1H290.51V10.34H281.17V38.36H271.83V66.38H281.17V57.04H290.51V75.72H299.85V85.06H309.19V94.4H318.53V103.74H327.87V113.08H337.21V122.42H346.55V131.76H318.53V122.42H309.19V113.08H299.85V103.74H290.51V94.4H281.17V85.06H271.83V75.72H262.49V103.74H253.15V122.42H262.49V131.76H225.13V122.42H234.47V122.41ZM299.85 47.7V57.04H290.51V47.7H299.85ZM309.19 38.36V47.7H299.85V38.36H309.19ZM318.53 29.02V38.36H309.19V29.02H318.53ZM318.53 10.34V1H355.89V10.34H337.21V19.68H327.87V10.34H318.53ZM327.86 19.68V29.02H318.52V19.68H327.86ZM355.88 113.07V122.41H346.54V113.07H355.88Z" fill="#FCF3FF"/>
<path d="M290.51 57.04H281.17V66.38H271.83V38.36H281.17V10.34H290.51V1H253.15V10.34H262.49V38.35H253.15V75.71H243.81V103.73H234.47V122.41V122.42H225.13V131.76H262.49V122.42H253.15V103.74H262.49V75.72H271.83V85.06H281.17V94.4H290.51V103.74H299.85V113.08H309.19V122.42H318.53V131.76H346.55V122.42H337.21V113.08H327.87V103.74H318.53V94.4H309.19V85.06H299.85V75.72H290.51V57.04ZM290.51 57.04H299.85V47.7M290.51 57.04V47.7H299.85M299.85 47.7H309.19V38.36M299.85 47.7V38.36H309.19M309.19 38.36H318.53V29.02H309.19V38.36ZM318.53 10.34V1H355.89V10.34H337.21V19.68H327.87V10.34H318.53ZM327.86 19.68V29.02H318.52V19.68H327.86ZM355.88 113.07V122.41H346.54V113.07H355.88Z" stroke="#FCF3FF" stroke-width="2" stroke-miterlimit="10"/>
<path d="M365.22 113.07V75.7096H374.56V57.0296H383.9V47.6896H402.58V57.0296H393.24V75.7096H383.9V94.3896H402.58V103.73H383.9V113.07H393.24V122.41H421.26V131.75H383.9V122.41H374.56V113.07H365.22ZM430.59 75.7096V47.6896H402.57V38.3496H439.93V47.6896H449.27V75.7096H439.93V85.0496H421.25V75.7096H430.59ZM421.25 85.0496V94.3896H402.57V85.0496H421.25ZM439.93 113.07V122.41H421.25V113.07H439.93ZM449.27 103.73V113.07H439.93V103.73H449.27Z" fill="#FCF3FF"/>
<path d="M421.25 85.0496H439.93V75.7096H449.27V47.6896H439.93V38.3496H402.57V47.6896H430.59V75.7096H421.25V85.0496ZM421.25 85.0496V94.3896H402.57V85.0496H421.25ZM439.93 113.07V122.41H421.25V113.07H439.93ZM439.93 113.07H449.27V103.73H439.93V113.07ZM365.22 113.07V75.7096H374.56V57.0296H383.9V47.6896H402.58V57.0296H393.24V75.7096H383.9V94.3896H402.58V103.73H383.9V113.07H393.24V122.41H421.26V131.75H383.9V122.41H374.56V113.07H365.22Z" stroke="#FCF3FF" stroke-width="2" stroke-miterlimit="10"/>
</svg>
