<?xml version="1.0" encoding="UTF-8"?>
<svg id="Calque_1" xmlns="http://www.w3.org/2000/svg" version="1.1" viewBox="0 0 93 80">
  <!-- Generator: Adobe Illustrator 30.2.1, SVG Export Plug-In . SVG Version: 2.1.1 Build 1)  -->
  <defs>
    <style>
      .st0 {
        fill: #ff4d6d;
      }
    </style>
  </defs>
  <path class="st0" d="M88.4,16.8v-8.4h-4.2v-4.3h-8.5V0h-16.8v4.2h-8.5v4.3h-8.4v-4.3h-8.5V0h-16.8v4.2h-8.5v4.3h-4.2v8.4H0v16.9h4.2v8.4h4.2v4.2h4.3v4.3h4.2v4.2h4.2v4.2h4.2v4.3h4.3v4.2h4.2v4.2h4.2v4.3h4.3v4.2h8.4v-4.2h4.3v-4.3h4.2v-4.2h4.2v-4.2h4.2v-4.3h4.3v-4.2h4.2v-4.2h4.2v-4.3h4.3v-4.2h4.2v-4.2h4.2v-21.1h-4.2,0ZM88.4,29.5h-4.2v8.5h-4.3v4.2h-4.2v4.2h-4.2v4.3h-4.3v4.2h-4.2v4.2h-4.2v4.3h-4.2v4.2h-4.3v4.2h-8.4v-4.2h-4.3v-4.2h-4.2v-4.3h-4.2v-4.2h-4.3v-4.2h-4.2v-4.3h-4.2v-4.2h-4.2v-4.2h-4.3V12.6h4.3v-4.2h25.2v4.2h4.3v4.2h8.4v-4.2h4.3v-4.2h25.2v4.2h4.3v8.4h4.2v8.4h0Z"/>
</svg>