<svg width="677" height="386" viewBox="0 0 677 386" fill="none" xmlns="http://www.w3.org/2000/svg">
<g filter="url(#filter0_dd_210_2854)">
<path d="M434.02 322.52V302.58H439V292.61H443.99V287.62H453.96V292.61H448.98V302.58H443.99V317.54H448.98V322.52H458.95V327.51H439.01V322.52H434.03H434.02ZM463.93 282.64V287.62H453.96V282.64H463.93ZM463.93 317.54V322.52H458.94V317.54H463.93ZM468.92 312.55V307.56H473.91V297.59H478.9V282.63H463.94V277.64H483.88V262.68H473.91V257.69H493.85V277.63H488.86V297.57H483.88V312.53H478.89V322.5H483.88V327.49H468.92V317.52H463.94V312.53H468.92V312.55ZM488.86 317.54V322.52H483.88V317.54H488.86Z" fill="white"/>
</g>
<g filter="url(#filter1_dd_210_2854)">
<path d="M508.8 312.55V297.59H513.79V282.63H508.8V277.64H523.76V302.57H518.78V312.54H513.79V322.51H518.78V327.5H503.82V312.54H508.8V312.55ZM508.8 282.64V287.62H503.82V282.64H508.8ZM528.74 257.71V267.68H518.77V257.71H528.74ZM523.75 317.54V322.52H518.77V317.54H523.75Z" fill="white"/>
</g>
<g filter="url(#filter2_dd_210_2854)">
<path d="M538.71 312.55V297.59H543.7V282.63H538.71V277.64H553.67V287.61H558.66V292.6H553.67V302.57H548.69V312.54H543.7V327.5H533.73V312.54H538.71V312.55ZM538.71 282.64V287.62H533.73V282.64H538.71ZM563.63 282.64V287.62H558.64V282.64H563.63ZM573.6 277.66V282.65H578.59V292.62H568.62V282.65H563.63V277.66H573.6Z" fill="white"/>
</g>
<g filter="url(#filter3_dd_210_2854)">
<path d="M583.58 317.54V297.6H588.56V287.63H593.55V282.65H603.52V287.63H598.54V297.6H593.55V307.57H603.52V312.56H593.55V317.55H598.54V322.53H613.5V327.52H593.56V322.53H588.57V317.55H583.59L583.58 317.54ZM618.47 297.6V282.64H603.51V277.65H623.45V282.64H628.44V297.6H623.45V302.59H613.48V297.6H618.47ZM613.49 302.58V307.56H603.52V302.58H613.49ZM623.46 317.54V322.52H613.49V317.54H623.46ZM628.44 312.55V317.54H623.45V312.55H628.44Z" fill="white"/>
</g>
<g filter="url(#filter4_dd_210_2854)">
<path d="M111.01 256.59H99.6405L104.92 231.37L104.72 231.17C102.66 233.96 100.15 235.96 97.1905 237.15C94.2305 238.35 91.0605 238.94 87.6705 238.94C84.5505 238.94 81.8205 238.42 79.5005 237.4C77.1705 236.37 75.2505 234.92 73.7205 233.06C72.1905 231.2 71.0605 229.02 70.3305 226.53C69.6005 224.04 69.2305 221.33 69.2305 218.4C69.2305 214.15 69.8405 209.99 71.0705 205.94C72.3005 201.89 74.1105 198.28 76.5005 195.12C78.8905 191.96 81.8705 189.42 85.4205 187.49C88.9805 185.56 93.1105 184.6 97.8305 184.6C101.22 184.6 104.31 185.31 107.1 186.74C109.89 188.17 111.95 190.51 113.28 193.77H113.48L115.08 185.99H125.65L110.99 256.58L111.01 256.59ZM80.6005 217.01C80.6005 218.8 80.8105 220.48 81.2505 222.05C81.6805 223.61 82.3605 224.98 83.2905 226.14C84.2205 227.3 85.4305 228.23 86.9305 228.93C88.4305 229.63 90.2405 229.98 92.3605 229.98C95.4205 229.98 98.0605 229.25 100.29 227.79C102.52 226.33 104.34 224.43 105.77 222.11C107.2 219.78 108.24 217.19 108.91 214.33C109.57 211.47 109.91 208.65 109.91 205.86C109.91 202.27 108.95 199.33 107.02 197.04C105.09 194.75 102.3 193.6 98.6405 193.6C95.5805 193.6 92.9205 194.33 90.6605 195.79C88.4005 197.25 86.5205 199.12 85.0305 201.37C83.5305 203.63 82.4205 206.14 81.6905 208.9C80.9605 211.66 80.5905 214.37 80.5905 217.02L80.6005 217.01Z" fill="white"/>
</g>
<g filter="url(#filter5_dd_210_2854)">
<path d="M172.93 237.55H162.26L163.86 230.07L163.66 229.87C161.6 232.73 159.02 234.95 155.93 236.55C152.84 238.15 149.5 238.94 145.91 238.94C140.73 238.94 136.92 237.71 134.49 235.25C132.06 232.79 130.85 229.47 130.85 225.28C130.85 224.35 130.88 223.29 130.95 222.09C131.02 220.89 131.15 219.83 131.35 218.9L138.23 186H149.6L143.02 217.8C142.82 218.67 142.64 219.5 142.47 220.29C142.3 221.09 142.22 221.85 142.22 222.58C142.22 222.98 142.24 223.59 142.27 224.42C142.3 225.25 142.55 226.08 143.02 226.91C143.48 227.74 144.25 228.45 145.31 229.05C146.37 229.65 147.97 229.95 150.1 229.95C152.23 229.95 154.3 229.47 156.13 228.5C157.96 227.54 159.57 226.29 160.96 224.76C162.36 223.23 163.52 221.52 164.45 219.63C165.38 217.74 166.04 215.83 166.44 213.9L172.22 185.98H183.59L172.92 237.53L172.93 237.55Z" fill="white"/>
</g>
<g filter="url(#filter6_dd_210_2854)">
<path d="M234.74 221.6C232.95 227.65 229.92 232.05 225.67 234.81C221.42 237.57 216.16 238.95 209.92 238.95C206.66 238.95 203.65 238.43 200.9 237.41C198.14 236.38 195.77 234.88 193.77 232.92C191.78 230.96 190.21 228.6 189.08 225.84C187.95 223.08 187.38 219.94 187.38 216.42C187.38 212.43 188.01 208.54 189.27 204.75C190.53 200.96 192.38 197.57 194.8 194.58C197.23 191.59 200.22 189.18 203.77 187.35C207.32 185.52 211.4 184.61 215.98 184.61C220.56 184.61 224.29 185.37 227.15 186.9C230.01 188.43 232.23 190.36 233.83 192.68C235.43 195.01 236.5 197.57 237.07 200.36C237.63 203.15 237.92 205.81 237.92 208.34C237.92 209.6 237.85 210.77 237.72 211.83C237.59 212.89 237.45 213.86 237.32 214.72H198.94C198.87 215.05 198.82 215.35 198.79 215.62C198.76 215.89 198.74 216.15 198.74 216.42V218.01C198.74 221.6 199.69 224.49 201.58 226.68C203.47 228.87 206.62 229.97 211 229.97C214.06 229.97 216.68 229.27 218.88 227.88C221.07 226.48 222.57 224.39 223.37 221.6H234.74ZM226.46 207.24C226.53 206.91 226.56 206.63 226.56 206.39V204.05C226.56 200.99 225.6 198.48 223.67 196.52C221.74 194.56 219.08 193.58 215.69 193.58C211.44 193.58 208.05 194.86 205.52 197.42C202.99 199.98 201.17 203.25 200.04 207.24H226.46Z" fill="white"/>
</g>
<g filter="url(#filter7_dd_210_2854)">
<path d="M259.55 242.53V252.5H269.52V257.49H254.56V252.5H249.57V242.53H259.54H259.55ZM274.5 237.55V222.59H279.48V207.63H284.47V192.67H279.48V187.68H294.44V212.61H289.46V222.58H284.47V237.54H279.48V247.51H274.5V252.5H269.51V237.54H274.5V237.55ZM279.49 192.68V197.66H274.51V192.68H279.49ZM299.43 167.76V177.73H289.46V167.76H299.43Z" fill="white"/>
</g>
<g filter="url(#filter8_dd_210_2854)">
<path d="M304.41 227.58V207.64H309.39V197.67H314.38V192.69H324.35V197.67H319.37V207.64H314.38V217.61H324.35V222.6H314.38V227.59H319.37V232.57H334.33V237.56H314.39V232.57H309.4V227.59H304.42L304.41 227.58ZM339.31 207.64V192.68H324.35V187.69H344.29V192.68H349.28V207.64H344.29V212.63H334.32V207.64H339.31ZM334.32 212.62V217.6H324.35V212.62H334.32ZM344.29 227.58V232.56H334.32V227.58H344.29ZM349.28 222.59V227.58H344.29V222.59H349.28Z" fill="white"/>
</g>
<g filter="url(#filter9_dd_210_2854)">
<path d="M394.14 197.67V207.64H384.17V192.68H389.15V197.66H394.14V197.67ZM399.13 232.56V227.58H394.14V212.62H399.13V197.66H404.11V192.68H389.15V187.69H414.08V192.68H409.09V212.62H404.1V227.58H409.09V232.56H424.05V237.55H404.11V232.56H399.13ZM429.04 227.58V232.56H424.05V227.58H429.04ZM429.04 197.67V187.7H439.01V217.61H434.03V197.67H429.04ZM434.02 217.61V227.58H429.03V217.61H434.02Z" fill="white"/>
</g>
<g filter="url(#filter10_dd_210_2854)">
<path d="M444 227.58V207.64H448.98V197.67H453.97V192.69H463.94V197.67H458.96V207.64H453.97V217.61H463.94V222.6H453.97V227.59H458.96V232.57H473.92V237.56H453.98V232.57H448.99V227.59H444.01L444 227.58ZM478.89 207.64V192.68H463.93V187.69H483.87V192.68H488.86V207.64H483.87V212.63H473.9V207.64H478.88H478.89ZM473.91 212.62V217.6H463.94V212.62H473.91ZM483.88 227.58V232.56H473.91V227.58H483.88ZM488.86 222.59V227.58H483.87V222.59H488.86Z" fill="white"/>
</g>
<g filter="url(#filter11_dd_210_2854)">
<path d="M503.81 237.55V232.56H498.83V217.6H503.81V202.64H508.8V192.67H503.81V187.68H518.77V202.64H513.79V217.6H508.8V227.57H513.79V232.55H518.77V237.54H503.81V237.55ZM498.83 197.67V192.69H503.81V197.67H498.83ZM518.77 232.56V227.58H523.76V232.56H518.77ZM523.75 227.58V222.59H528.74V227.58H523.75ZM528.74 222.59V217.6H533.72V212.62H538.71V202.65H543.7V187.69H553.67V202.65H548.69V217.61H543.7V232.57H548.69V237.56H533.73V222.6H528.75L528.74 222.59ZM548.68 232.56V227.58H553.66V232.56H548.68Z" fill="white"/>
</g>
<g filter="url(#filter12_dd_210_2854)">
<path d="M568.62 227.58V232.56H573.61V237.55H558.65V227.58H568.62ZM568.62 197.67V202.66H563.64V197.67H568.62ZM573.6 192.68V197.66H568.61V192.68H573.6ZM588.56 222.59V212.62H583.57V202.65H578.59V192.68H573.6V187.69H583.57V192.68H588.56V202.65H593.55V212.62H598.54V222.59H603.52V232.56H608.51V237.55H598.54V232.56H593.55V222.59H588.56ZM578.59 227.58V232.56H573.6V227.58H578.59ZM583.57 222.59V227.58H578.59V222.59H583.57ZM603.52 202.65V207.64H598.54V202.65H603.52ZM608.5 197.67V202.66H603.51V197.67H608.5ZM613.49 192.68V197.66H608.5V192.68H613.49ZM613.49 227.58V232.56H608.5V227.58H613.49ZM628.44 187.7V197.67H618.47V192.69H613.49V187.7H628.45H628.44ZM618.47 222.59V227.58H613.49V222.59H618.47ZM623.46 217.61V222.6H618.47V217.61H623.46Z" fill="white"/>
</g>
<g filter="url(#filter13_dd_210_2854)">
<path d="M184.77 131.18V116.22H189.76V101.26H179.79V96.2701H194.75V81.3101H204.72V96.2701H214.69V101.26H199.73V121.2H194.75V131.17H189.76V141.14H194.75V146.13H179.79V131.17H184.77V131.18ZM199.73 136.17V141.15H194.75V136.17H199.73Z" fill="white"/>
</g>
<g filter="url(#filter14_dd_210_2854)">
<path d="M222.36 146.14V141.15H217.38V126.19H222.36V111.23H227.35V101.26H222.36V96.27H237.32V111.23H232.34V126.19H227.35V136.16H232.34V141.14H237.32V146.13H222.36V146.14ZM217.37 106.26V101.27H222.35V106.26H217.37ZM237.31 141.15V136.17H242.3V141.15H237.31ZM242.3 136.17V131.18H247.29V136.17H242.3ZM247.28 131.18V126.19H252.27V121.21H257.25V111.24H262.24V96.28H272.21V111.24H267.23V126.2H262.24V141.16H267.23V146.15H252.27V131.19H247.28V131.18ZM267.22 141.15V136.17H272.2V141.15H267.22Z" fill="white"/>
</g>
<g filter="url(#filter15_dd_210_2854)">
<path d="M317.07 106.26V116.23H307.1V101.27H312.08V106.26H317.07ZM322.06 141.15V136.17H317.07V121.21H322.06V106.25H327.04V101.26H312.08V96.27H337.01V101.26H332.02V121.2H327.03V136.16H332.02V141.14H346.98V146.13H327.04V141.14H322.06V141.15ZM351.97 136.17V141.15H346.98V136.17H351.97ZM351.97 106.26V96.29H361.94V126.2H356.96V106.26H351.97ZM356.95 126.2V136.17H351.96V126.2H356.95Z" fill="white"/>
</g>
<g filter="url(#filter16_dd_210_2854)">
<path d="M366.93 136.17V116.23H371.91V106.26H376.9V101.27H386.87V106.26H381.89V116.23H376.9V136.17H381.89V141.15H396.85V146.14H376.91V141.15H371.92V136.17H366.94H366.93ZM401.82 136.17V126.2H406.8V106.26H401.82V101.27H386.86V96.2798H406.8V101.27H411.79V106.26H416.78V126.2H411.79V136.17H406.8V141.15H396.83V136.17H401.82Z" fill="white"/>
</g>
<g filter="url(#filter17_dd_210_2854)">
<path d="M431.73 131.18V116.22H436.72V101.26H431.73V96.2701H446.69V121.2H441.71V131.17H436.72V141.14H441.71V146.13H426.75V131.17H431.73V131.18ZM431.73 101.27V106.26H426.75V101.27H431.73ZM451.67 76.3501V86.3201H441.7V76.3501H451.67ZM446.69 136.17V141.15H441.71V136.17H446.69Z" fill="white"/>
</g>
<g filter="url(#filter18_dd_210_2854)">
<path d="M451.67 141.15V131.18H461.64V141.15H476.6V131.18H471.62V121.21H466.63V111.24H461.64V101.27H466.63V96.2798H491.55V101.27H496.54V111.24H486.57V101.27H471.61V111.24H476.59V121.21H481.58V131.18H486.57V141.15H481.58V146.14H456.66V141.15H451.67Z" fill="white"/>
</g>
<g filter="url(#filter19_dd_210_2854)">
<path d="M561.14 111.64C561.27 108.45 560.41 106.07 558.55 104.51C556.69 102.95 554.16 102.17 550.97 102.17C548.11 102.17 545.62 102.9 543.49 104.36C541.36 105.82 539.6 107.69 538.21 109.94C536.81 112.2 535.77 114.68 535.07 117.37C534.37 120.06 534.02 122.64 534.02 125.1C534.02 127.03 534.22 128.81 534.62 130.43C535.02 132.06 535.67 133.47 536.56 134.67C537.46 135.87 538.64 136.81 540.1 137.51C541.56 138.21 543.36 138.56 545.48 138.56C548.87 138.56 551.64 137.66 553.81 135.87C555.97 134.08 557.51 131.58 558.45 128.39H569.82C567.96 135.04 564.83 139.89 560.45 142.95C556.06 146.01 550.45 147.54 543.6 147.54C540.21 147.54 537.22 147.01 534.63 145.95C532.04 144.89 529.86 143.37 528.1 141.41C526.34 139.45 524.99 137.12 524.06 134.43C523.13 131.74 522.66 128.76 522.66 125.51C522.66 121.19 523.32 117.07 524.65 113.15C525.98 109.23 527.91 105.79 530.43 102.83C532.95 99.87 536.03 97.53 539.65 95.8C543.27 94.07 547.38 93.21 551.96 93.21C554.82 93.21 557.51 93.61 560.04 94.41C562.57 95.21 564.76 96.37 566.62 97.9C568.48 99.43 569.94 101.36 571.01 103.68C572.07 106.01 572.57 108.66 572.51 111.66H561.14V111.64Z" fill="white"/>
</g>
<g filter="url(#filter20_dd_210_2854)">
<path d="M625.251 130.18C623.461 136.23 620.431 140.63 616.181 143.39C611.931 146.15 606.671 147.53 600.431 147.53C597.171 147.53 594.161 147.01 591.411 145.99C588.651 144.96 586.281 143.46 584.281 141.5C582.291 139.54 580.721 137.18 579.591 134.42C578.461 131.66 577.891 128.52 577.891 125C577.891 121.01 578.521 117.12 579.781 113.33C581.041 109.54 582.891 106.15 585.311 103.16C587.741 100.17 590.731 97.7599 594.281 95.9299C597.831 94.0999 601.911 93.1899 606.491 93.1899C611.071 93.1899 614.801 93.9499 617.661 95.4799C620.521 97.0099 622.741 98.9399 624.341 101.26C625.941 103.59 627.011 106.15 627.581 108.94C628.141 111.73 628.431 114.39 628.431 116.92C628.431 118.18 628.361 119.35 628.231 120.41C628.101 121.47 627.961 122.44 627.831 123.3H589.451C589.381 123.63 589.331 123.93 589.301 124.2C589.271 124.47 589.251 124.73 589.251 125V126.59C589.251 130.18 590.201 133.07 592.091 135.26C593.981 137.45 597.131 138.55 601.511 138.55C604.571 138.55 607.191 137.85 609.391 136.46C611.581 135.06 613.081 132.97 613.881 130.18H625.251ZM616.981 115.83C617.051 115.5 617.081 115.22 617.081 114.98V112.64C617.081 109.58 616.121 107.07 614.191 105.11C612.261 103.15 609.601 102.17 606.211 102.17C601.961 102.17 598.571 103.45 596.041 106.01C593.511 108.57 591.691 111.84 590.561 115.83H616.981Z" fill="white"/>
</g>
<g filter="url(#filter21_dd_210_2854)">
<path d="M137.53 62.98H52.9805V147.53H137.53V62.98Z" fill="white"/>
</g>
<g filter="url(#filter22_dd_210_2854)">
<path d="M52.98 58H48V62.98H52.98V58Z" fill="white"/>
</g>
<defs>
<filter id="filter0_dd_210_2854" x="414.02" y="237.69" width="99.8301" height="109.82" filterUnits="userSpaceOnUse" color-interpolation-filters="sRGB">
<feFlood flood-opacity="0" result="BackgroundImageFix"/>
<feColorMatrix in="SourceAlpha" type="matrix" values="0 0 0 0 0 0 0 0 0 0 0 0 0 0 0 0 0 0 127 0" result="hardAlpha"/>
<feOffset/>
<feGaussianBlur stdDeviation="6"/>
<feComposite in2="hardAlpha" operator="out"/>
<feColorMatrix type="matrix" values="0 0 0 0 0.478431 0 0 0 0 0.360784 0 0 0 0 1 0 0 0 1 0"/>
<feBlend mode="normal" in2="BackgroundImageFix" result="effect1_dropShadow_210_2854"/>
<feColorMatrix in="SourceAlpha" type="matrix" values="0 0 0 0 0 0 0 0 0 0 0 0 0 0 0 0 0 0 127 0" result="hardAlpha"/>
<feOffset/>
<feGaussianBlur stdDeviation="10"/>
<feComposite in2="hardAlpha" operator="out"/>
<feColorMatrix type="matrix" values="0 0 0 0 0.478431 0 0 0 0 0.360784 0 0 0 0 1 0 0 0 0.5 0"/>
<feBlend mode="normal" in2="effect1_dropShadow_210_2854" result="effect2_dropShadow_210_2854"/>
<feBlend mode="normal" in="SourceGraphic" in2="effect2_dropShadow_210_2854" result="shape"/>
</filter>
<filter id="filter1_dd_210_2854" x="483.82" y="237.71" width="64.9199" height="109.79" filterUnits="userSpaceOnUse" color-interpolation-filters="sRGB">
<feFlood flood-opacity="0" result="BackgroundImageFix"/>
<feColorMatrix in="SourceAlpha" type="matrix" values="0 0 0 0 0 0 0 0 0 0 0 0 0 0 0 0 0 0 127 0" result="hardAlpha"/>
<feOffset/>
<feGaussianBlur stdDeviation="6"/>
<feComposite in2="hardAlpha" operator="out"/>
<feColorMatrix type="matrix" values="0 0 0 0 0.478431 0 0 0 0 0.360784 0 0 0 0 1 0 0 0 1 0"/>
<feBlend mode="normal" in2="BackgroundImageFix" result="effect1_dropShadow_210_2854"/>
<feColorMatrix in="SourceAlpha" type="matrix" values="0 0 0 0 0 0 0 0 0 0 0 0 0 0 0 0 0 0 127 0" result="hardAlpha"/>
<feOffset/>
<feGaussianBlur stdDeviation="10"/>
<feComposite in2="hardAlpha" operator="out"/>
<feColorMatrix type="matrix" values="0 0 0 0 0.478431 0 0 0 0 0.360784 0 0 0 0 1 0 0 0 0.5 0"/>
<feBlend mode="normal" in2="effect1_dropShadow_210_2854" result="effect2_dropShadow_210_2854"/>
<feBlend mode="normal" in="SourceGraphic" in2="effect2_dropShadow_210_2854" result="shape"/>
</filter>
<filter id="filter2_dd_210_2854" x="513.73" y="257.64" width="84.8604" height="89.8599" filterUnits="userSpaceOnUse" color-interpolation-filters="sRGB">
<feFlood flood-opacity="0" result="BackgroundImageFix"/>
<feColorMatrix in="SourceAlpha" type="matrix" values="0 0 0 0 0 0 0 0 0 0 0 0 0 0 0 0 0 0 127 0" result="hardAlpha"/>
<feOffset/>
<feGaussianBlur stdDeviation="6"/>
<feComposite in2="hardAlpha" operator="out"/>
<feColorMatrix type="matrix" values="0 0 0 0 0.478431 0 0 0 0 0.360784 0 0 0 0 1 0 0 0 1 0"/>
<feBlend mode="normal" in2="BackgroundImageFix" result="effect1_dropShadow_210_2854"/>
<feColorMatrix in="SourceAlpha" type="matrix" values="0 0 0 0 0 0 0 0 0 0 0 0 0 0 0 0 0 0 127 0" result="hardAlpha"/>
<feOffset/>
<feGaussianBlur stdDeviation="10"/>
<feComposite in2="hardAlpha" operator="out"/>
<feColorMatrix type="matrix" values="0 0 0 0 0.478431 0 0 0 0 0.360784 0 0 0 0 1 0 0 0 0.5 0"/>
<feBlend mode="normal" in2="effect1_dropShadow_210_2854" result="effect2_dropShadow_210_2854"/>
<feBlend mode="normal" in="SourceGraphic" in2="effect2_dropShadow_210_2854" result="shape"/>
</filter>
<filter id="filter3_dd_210_2854" x="563.58" y="257.65" width="84.8604" height="89.8701" filterUnits="userSpaceOnUse" color-interpolation-filters="sRGB">
<feFlood flood-opacity="0" result="BackgroundImageFix"/>
<feColorMatrix in="SourceAlpha" type="matrix" values="0 0 0 0 0 0 0 0 0 0 0 0 0 0 0 0 0 0 127 0" result="hardAlpha"/>
<feOffset/>
<feGaussianBlur stdDeviation="6"/>
<feComposite in2="hardAlpha" operator="out"/>
<feColorMatrix type="matrix" values="0 0 0 0 0.478431 0 0 0 0 0.360784 0 0 0 0 1 0 0 0 1 0"/>
<feBlend mode="normal" in2="BackgroundImageFix" result="effect1_dropShadow_210_2854"/>
<feColorMatrix in="SourceAlpha" type="matrix" values="0 0 0 0 0 0 0 0 0 0 0 0 0 0 0 0 0 0 127 0" result="hardAlpha"/>
<feOffset/>
<feGaussianBlur stdDeviation="10"/>
<feComposite in2="hardAlpha" operator="out"/>
<feColorMatrix type="matrix" values="0 0 0 0 0.478431 0 0 0 0 0.360784 0 0 0 0 1 0 0 0 0.5 0"/>
<feBlend mode="normal" in2="effect1_dropShadow_210_2854" result="effect2_dropShadow_210_2854"/>
<feBlend mode="normal" in="SourceGraphic" in2="effect2_dropShadow_210_2854" result="shape"/>
</filter>
<filter id="filter4_dd_210_2854" x="49.2305" y="164.6" width="96.4199" height="111.99" filterUnits="userSpaceOnUse" color-interpolation-filters="sRGB">
<feFlood flood-opacity="0" result="BackgroundImageFix"/>
<feColorMatrix in="SourceAlpha" type="matrix" values="0 0 0 0 0 0 0 0 0 0 0 0 0 0 0 0 0 0 127 0" result="hardAlpha"/>
<feOffset/>
<feGaussianBlur stdDeviation="6"/>
<feComposite in2="hardAlpha" operator="out"/>
<feColorMatrix type="matrix" values="0 0 0 0 0.478431 0 0 0 0 0.360784 0 0 0 0 1 0 0 0 1 0"/>
<feBlend mode="normal" in2="BackgroundImageFix" result="effect1_dropShadow_210_2854"/>
<feColorMatrix in="SourceAlpha" type="matrix" values="0 0 0 0 0 0 0 0 0 0 0 0 0 0 0 0 0 0 127 0" result="hardAlpha"/>
<feOffset/>
<feGaussianBlur stdDeviation="10"/>
<feComposite in2="hardAlpha" operator="out"/>
<feColorMatrix type="matrix" values="0 0 0 0 0.478431 0 0 0 0 0.360784 0 0 0 0 1 0 0 0 0.5 0"/>
<feBlend mode="normal" in2="effect1_dropShadow_210_2854" result="effect2_dropShadow_210_2854"/>
<feBlend mode="normal" in="SourceGraphic" in2="effect2_dropShadow_210_2854" result="shape"/>
</filter>
<filter id="filter5_dd_210_2854" x="110.85" y="165.98" width="92.7402" height="92.96" filterUnits="userSpaceOnUse" color-interpolation-filters="sRGB">
<feFlood flood-opacity="0" result="BackgroundImageFix"/>
<feColorMatrix in="SourceAlpha" type="matrix" values="0 0 0 0 0 0 0 0 0 0 0 0 0 0 0 0 0 0 127 0" result="hardAlpha"/>
<feOffset/>
<feGaussianBlur stdDeviation="6"/>
<feComposite in2="hardAlpha" operator="out"/>
<feColorMatrix type="matrix" values="0 0 0 0 0.478431 0 0 0 0 0.360784 0 0 0 0 1 0 0 0 1 0"/>
<feBlend mode="normal" in2="BackgroundImageFix" result="effect1_dropShadow_210_2854"/>
<feColorMatrix in="SourceAlpha" type="matrix" values="0 0 0 0 0 0 0 0 0 0 0 0 0 0 0 0 0 0 127 0" result="hardAlpha"/>
<feOffset/>
<feGaussianBlur stdDeviation="10"/>
<feComposite in2="hardAlpha" operator="out"/>
<feColorMatrix type="matrix" values="0 0 0 0 0.478431 0 0 0 0 0.360784 0 0 0 0 1 0 0 0 0.5 0"/>
<feBlend mode="normal" in2="effect1_dropShadow_210_2854" result="effect2_dropShadow_210_2854"/>
<feBlend mode="normal" in="SourceGraphic" in2="effect2_dropShadow_210_2854" result="shape"/>
</filter>
<filter id="filter6_dd_210_2854" x="167.38" y="164.61" width="90.54" height="94.3398" filterUnits="userSpaceOnUse" color-interpolation-filters="sRGB">
<feFlood flood-opacity="0" result="BackgroundImageFix"/>
<feColorMatrix in="SourceAlpha" type="matrix" values="0 0 0 0 0 0 0 0 0 0 0 0 0 0 0 0 0 0 127 0" result="hardAlpha"/>
<feOffset/>
<feGaussianBlur stdDeviation="6"/>
<feComposite in2="hardAlpha" operator="out"/>
<feColorMatrix type="matrix" values="0 0 0 0 0.478431 0 0 0 0 0.360784 0 0 0 0 1 0 0 0 1 0"/>
<feBlend mode="normal" in2="BackgroundImageFix" result="effect1_dropShadow_210_2854"/>
<feColorMatrix in="SourceAlpha" type="matrix" values="0 0 0 0 0 0 0 0 0 0 0 0 0 0 0 0 0 0 127 0" result="hardAlpha"/>
<feOffset/>
<feGaussianBlur stdDeviation="10"/>
<feComposite in2="hardAlpha" operator="out"/>
<feColorMatrix type="matrix" values="0 0 0 0 0.478431 0 0 0 0 0.360784 0 0 0 0 1 0 0 0 0.5 0"/>
<feBlend mode="normal" in2="effect1_dropShadow_210_2854" result="effect2_dropShadow_210_2854"/>
<feBlend mode="normal" in="SourceGraphic" in2="effect2_dropShadow_210_2854" result="shape"/>
</filter>
<filter id="filter7_dd_210_2854" x="229.57" y="147.76" width="89.8604" height="129.73" filterUnits="userSpaceOnUse" color-interpolation-filters="sRGB">
<feFlood flood-opacity="0" result="BackgroundImageFix"/>
<feColorMatrix in="SourceAlpha" type="matrix" values="0 0 0 0 0 0 0 0 0 0 0 0 0 0 0 0 0 0 127 0" result="hardAlpha"/>
<feOffset/>
<feGaussianBlur stdDeviation="6"/>
<feComposite in2="hardAlpha" operator="out"/>
<feColorMatrix type="matrix" values="0 0 0 0 0.478431 0 0 0 0 0.360784 0 0 0 0 1 0 0 0 1 0"/>
<feBlend mode="normal" in2="BackgroundImageFix" result="effect1_dropShadow_210_2854"/>
<feColorMatrix in="SourceAlpha" type="matrix" values="0 0 0 0 0 0 0 0 0 0 0 0 0 0 0 0 0 0 127 0" result="hardAlpha"/>
<feOffset/>
<feGaussianBlur stdDeviation="10"/>
<feComposite in2="hardAlpha" operator="out"/>
<feColorMatrix type="matrix" values="0 0 0 0 0.478431 0 0 0 0 0.360784 0 0 0 0 1 0 0 0 0.5 0"/>
<feBlend mode="normal" in2="effect1_dropShadow_210_2854" result="effect2_dropShadow_210_2854"/>
<feBlend mode="normal" in="SourceGraphic" in2="effect2_dropShadow_210_2854" result="shape"/>
</filter>
<filter id="filter8_dd_210_2854" x="284.41" y="167.69" width="84.8701" height="89.8701" filterUnits="userSpaceOnUse" color-interpolation-filters="sRGB">
<feFlood flood-opacity="0" result="BackgroundImageFix"/>
<feColorMatrix in="SourceAlpha" type="matrix" values="0 0 0 0 0 0 0 0 0 0 0 0 0 0 0 0 0 0 127 0" result="hardAlpha"/>
<feOffset/>
<feGaussianBlur stdDeviation="6"/>
<feComposite in2="hardAlpha" operator="out"/>
<feColorMatrix type="matrix" values="0 0 0 0 0.478431 0 0 0 0 0.360784 0 0 0 0 1 0 0 0 1 0"/>
<feBlend mode="normal" in2="BackgroundImageFix" result="effect1_dropShadow_210_2854"/>
<feColorMatrix in="SourceAlpha" type="matrix" values="0 0 0 0 0 0 0 0 0 0 0 0 0 0 0 0 0 0 127 0" result="hardAlpha"/>
<feOffset/>
<feGaussianBlur stdDeviation="10"/>
<feComposite in2="hardAlpha" operator="out"/>
<feColorMatrix type="matrix" values="0 0 0 0 0.478431 0 0 0 0 0.360784 0 0 0 0 1 0 0 0 0.5 0"/>
<feBlend mode="normal" in2="effect1_dropShadow_210_2854" result="effect2_dropShadow_210_2854"/>
<feBlend mode="normal" in="SourceGraphic" in2="effect2_dropShadow_210_2854" result="shape"/>
</filter>
<filter id="filter9_dd_210_2854" x="364.17" y="167.69" width="94.8398" height="89.8599" filterUnits="userSpaceOnUse" color-interpolation-filters="sRGB">
<feFlood flood-opacity="0" result="BackgroundImageFix"/>
<feColorMatrix in="SourceAlpha" type="matrix" values="0 0 0 0 0 0 0 0 0 0 0 0 0 0 0 0 0 0 127 0" result="hardAlpha"/>
<feOffset/>
<feGaussianBlur stdDeviation="6"/>
<feComposite in2="hardAlpha" operator="out"/>
<feColorMatrix type="matrix" values="0 0 0 0 0.478431 0 0 0 0 0.360784 0 0 0 0 1 0 0 0 1 0"/>
<feBlend mode="normal" in2="BackgroundImageFix" result="effect1_dropShadow_210_2854"/>
<feColorMatrix in="SourceAlpha" type="matrix" values="0 0 0 0 0 0 0 0 0 0 0 0 0 0 0 0 0 0 127 0" result="hardAlpha"/>
<feOffset/>
<feGaussianBlur stdDeviation="10"/>
<feComposite in2="hardAlpha" operator="out"/>
<feColorMatrix type="matrix" values="0 0 0 0 0.478431 0 0 0 0 0.360784 0 0 0 0 1 0 0 0 0.5 0"/>
<feBlend mode="normal" in2="effect1_dropShadow_210_2854" result="effect2_dropShadow_210_2854"/>
<feBlend mode="normal" in="SourceGraphic" in2="effect2_dropShadow_210_2854" result="shape"/>
</filter>
<filter id="filter10_dd_210_2854" x="424" y="167.69" width="84.8604" height="89.8701" filterUnits="userSpaceOnUse" color-interpolation-filters="sRGB">
<feFlood flood-opacity="0" result="BackgroundImageFix"/>
<feColorMatrix in="SourceAlpha" type="matrix" values="0 0 0 0 0 0 0 0 0 0 0 0 0 0 0 0 0 0 127 0" result="hardAlpha"/>
<feOffset/>
<feGaussianBlur stdDeviation="6"/>
<feComposite in2="hardAlpha" operator="out"/>
<feColorMatrix type="matrix" values="0 0 0 0 0.478431 0 0 0 0 0.360784 0 0 0 0 1 0 0 0 1 0"/>
<feBlend mode="normal" in2="BackgroundImageFix" result="effect1_dropShadow_210_2854"/>
<feColorMatrix in="SourceAlpha" type="matrix" values="0 0 0 0 0 0 0 0 0 0 0 0 0 0 0 0 0 0 127 0" result="hardAlpha"/>
<feOffset/>
<feGaussianBlur stdDeviation="10"/>
<feComposite in2="hardAlpha" operator="out"/>
<feColorMatrix type="matrix" values="0 0 0 0 0.478431 0 0 0 0 0.360784 0 0 0 0 1 0 0 0 0.5 0"/>
<feBlend mode="normal" in2="effect1_dropShadow_210_2854" result="effect2_dropShadow_210_2854"/>
<feBlend mode="normal" in="SourceGraphic" in2="effect2_dropShadow_210_2854" result="shape"/>
</filter>
<filter id="filter11_dd_210_2854" x="478.83" y="167.68" width="94.8398" height="89.8799" filterUnits="userSpaceOnUse" color-interpolation-filters="sRGB">
<feFlood flood-opacity="0" result="BackgroundImageFix"/>
<feColorMatrix in="SourceAlpha" type="matrix" values="0 0 0 0 0 0 0 0 0 0 0 0 0 0 0 0 0 0 127 0" result="hardAlpha"/>
<feOffset/>
<feGaussianBlur stdDeviation="6"/>
<feComposite in2="hardAlpha" operator="out"/>
<feColorMatrix type="matrix" values="0 0 0 0 0.478431 0 0 0 0 0.360784 0 0 0 0 1 0 0 0 1 0"/>
<feBlend mode="normal" in2="BackgroundImageFix" result="effect1_dropShadow_210_2854"/>
<feColorMatrix in="SourceAlpha" type="matrix" values="0 0 0 0 0 0 0 0 0 0 0 0 0 0 0 0 0 0 127 0" result="hardAlpha"/>
<feOffset/>
<feGaussianBlur stdDeviation="10"/>
<feComposite in2="hardAlpha" operator="out"/>
<feColorMatrix type="matrix" values="0 0 0 0 0.478431 0 0 0 0 0.360784 0 0 0 0 1 0 0 0 0.5 0"/>
<feBlend mode="normal" in2="effect1_dropShadow_210_2854" result="effect2_dropShadow_210_2854"/>
<feBlend mode="normal" in="SourceGraphic" in2="effect2_dropShadow_210_2854" result="shape"/>
</filter>
<filter id="filter12_dd_210_2854" x="538.65" y="167.69" width="109.8" height="89.8599" filterUnits="userSpaceOnUse" color-interpolation-filters="sRGB">
<feFlood flood-opacity="0" result="BackgroundImageFix"/>
<feColorMatrix in="SourceAlpha" type="matrix" values="0 0 0 0 0 0 0 0 0 0 0 0 0 0 0 0 0 0 127 0" result="hardAlpha"/>
<feOffset/>
<feGaussianBlur stdDeviation="6"/>
<feComposite in2="hardAlpha" operator="out"/>
<feColorMatrix type="matrix" values="0 0 0 0 0.478431 0 0 0 0 0.360784 0 0 0 0 1 0 0 0 1 0"/>
<feBlend mode="normal" in2="BackgroundImageFix" result="effect1_dropShadow_210_2854"/>
<feColorMatrix in="SourceAlpha" type="matrix" values="0 0 0 0 0 0 0 0 0 0 0 0 0 0 0 0 0 0 127 0" result="hardAlpha"/>
<feOffset/>
<feGaussianBlur stdDeviation="10"/>
<feComposite in2="hardAlpha" operator="out"/>
<feColorMatrix type="matrix" values="0 0 0 0 0.478431 0 0 0 0 0.360784 0 0 0 0 1 0 0 0 0.5 0"/>
<feBlend mode="normal" in2="effect1_dropShadow_210_2854" result="effect2_dropShadow_210_2854"/>
<feBlend mode="normal" in="SourceGraphic" in2="effect2_dropShadow_210_2854" result="shape"/>
</filter>
<filter id="filter13_dd_210_2854" x="159.79" y="61.3101" width="74.9004" height="104.82" filterUnits="userSpaceOnUse" color-interpolation-filters="sRGB">
<feFlood flood-opacity="0" result="BackgroundImageFix"/>
<feColorMatrix in="SourceAlpha" type="matrix" values="0 0 0 0 0 0 0 0 0 0 0 0 0 0 0 0 0 0 127 0" result="hardAlpha"/>
<feOffset/>
<feGaussianBlur stdDeviation="6"/>
<feComposite in2="hardAlpha" operator="out"/>
<feColorMatrix type="matrix" values="0 0 0 0 0.478431 0 0 0 0 0.360784 0 0 0 0 1 0 0 0 1 0"/>
<feBlend mode="normal" in2="BackgroundImageFix" result="effect1_dropShadow_210_2854"/>
<feColorMatrix in="SourceAlpha" type="matrix" values="0 0 0 0 0 0 0 0 0 0 0 0 0 0 0 0 0 0 127 0" result="hardAlpha"/>
<feOffset/>
<feGaussianBlur stdDeviation="10"/>
<feComposite in2="hardAlpha" operator="out"/>
<feColorMatrix type="matrix" values="0 0 0 0 0.478431 0 0 0 0 0.360784 0 0 0 0 1 0 0 0 0.5 0"/>
<feBlend mode="normal" in2="effect1_dropShadow_210_2854" result="effect2_dropShadow_210_2854"/>
<feBlend mode="normal" in="SourceGraphic" in2="effect2_dropShadow_210_2854" result="shape"/>
</filter>
<filter id="filter14_dd_210_2854" x="197.37" y="76.27" width="94.8398" height="89.8799" filterUnits="userSpaceOnUse" color-interpolation-filters="sRGB">
<feFlood flood-opacity="0" result="BackgroundImageFix"/>
<feColorMatrix in="SourceAlpha" type="matrix" values="0 0 0 0 0 0 0 0 0 0 0 0 0 0 0 0 0 0 127 0" result="hardAlpha"/>
<feOffset/>
<feGaussianBlur stdDeviation="6"/>
<feComposite in2="hardAlpha" operator="out"/>
<feColorMatrix type="matrix" values="0 0 0 0 0.478431 0 0 0 0 0.360784 0 0 0 0 1 0 0 0 1 0"/>
<feBlend mode="normal" in2="BackgroundImageFix" result="effect1_dropShadow_210_2854"/>
<feColorMatrix in="SourceAlpha" type="matrix" values="0 0 0 0 0 0 0 0 0 0 0 0 0 0 0 0 0 0 127 0" result="hardAlpha"/>
<feOffset/>
<feGaussianBlur stdDeviation="10"/>
<feComposite in2="hardAlpha" operator="out"/>
<feColorMatrix type="matrix" values="0 0 0 0 0.478431 0 0 0 0 0.360784 0 0 0 0 1 0 0 0 0.5 0"/>
<feBlend mode="normal" in2="effect1_dropShadow_210_2854" result="effect2_dropShadow_210_2854"/>
<feBlend mode="normal" in="SourceGraphic" in2="effect2_dropShadow_210_2854" result="shape"/>
</filter>
<filter id="filter15_dd_210_2854" x="287.1" y="76.27" width="94.8398" height="89.8599" filterUnits="userSpaceOnUse" color-interpolation-filters="sRGB">
<feFlood flood-opacity="0" result="BackgroundImageFix"/>
<feColorMatrix in="SourceAlpha" type="matrix" values="0 0 0 0 0 0 0 0 0 0 0 0 0 0 0 0 0 0 127 0" result="hardAlpha"/>
<feOffset/>
<feGaussianBlur stdDeviation="6"/>
<feComposite in2="hardAlpha" operator="out"/>
<feColorMatrix type="matrix" values="0 0 0 0 0.478431 0 0 0 0 0.360784 0 0 0 0 1 0 0 0 1 0"/>
<feBlend mode="normal" in2="BackgroundImageFix" result="effect1_dropShadow_210_2854"/>
<feColorMatrix in="SourceAlpha" type="matrix" values="0 0 0 0 0 0 0 0 0 0 0 0 0 0 0 0 0 0 127 0" result="hardAlpha"/>
<feOffset/>
<feGaussianBlur stdDeviation="10"/>
<feComposite in2="hardAlpha" operator="out"/>
<feColorMatrix type="matrix" values="0 0 0 0 0.478431 0 0 0 0 0.360784 0 0 0 0 1 0 0 0 0.5 0"/>
<feBlend mode="normal" in2="effect1_dropShadow_210_2854" result="effect2_dropShadow_210_2854"/>
<feBlend mode="normal" in="SourceGraphic" in2="effect2_dropShadow_210_2854" result="shape"/>
</filter>
<filter id="filter16_dd_210_2854" x="346.93" y="76.2798" width="89.8496" height="89.8599" filterUnits="userSpaceOnUse" color-interpolation-filters="sRGB">
<feFlood flood-opacity="0" result="BackgroundImageFix"/>
<feColorMatrix in="SourceAlpha" type="matrix" values="0 0 0 0 0 0 0 0 0 0 0 0 0 0 0 0 0 0 127 0" result="hardAlpha"/>
<feOffset/>
<feGaussianBlur stdDeviation="6"/>
<feComposite in2="hardAlpha" operator="out"/>
<feColorMatrix type="matrix" values="0 0 0 0 0.478431 0 0 0 0 0.360784 0 0 0 0 1 0 0 0 1 0"/>
<feBlend mode="normal" in2="BackgroundImageFix" result="effect1_dropShadow_210_2854"/>
<feColorMatrix in="SourceAlpha" type="matrix" values="0 0 0 0 0 0 0 0 0 0 0 0 0 0 0 0 0 0 127 0" result="hardAlpha"/>
<feOffset/>
<feGaussianBlur stdDeviation="10"/>
<feComposite in2="hardAlpha" operator="out"/>
<feColorMatrix type="matrix" values="0 0 0 0 0.478431 0 0 0 0 0.360784 0 0 0 0 1 0 0 0 0.5 0"/>
<feBlend mode="normal" in2="effect1_dropShadow_210_2854" result="effect2_dropShadow_210_2854"/>
<feBlend mode="normal" in="SourceGraphic" in2="effect2_dropShadow_210_2854" result="shape"/>
</filter>
<filter id="filter17_dd_210_2854" x="406.75" y="56.3501" width="64.9199" height="109.78" filterUnits="userSpaceOnUse" color-interpolation-filters="sRGB">
<feFlood flood-opacity="0" result="BackgroundImageFix"/>
<feColorMatrix in="SourceAlpha" type="matrix" values="0 0 0 0 0 0 0 0 0 0 0 0 0 0 0 0 0 0 127 0" result="hardAlpha"/>
<feOffset/>
<feGaussianBlur stdDeviation="6"/>
<feComposite in2="hardAlpha" operator="out"/>
<feColorMatrix type="matrix" values="0 0 0 0 0.478431 0 0 0 0 0.360784 0 0 0 0 1 0 0 0 1 0"/>
<feBlend mode="normal" in2="BackgroundImageFix" result="effect1_dropShadow_210_2854"/>
<feColorMatrix in="SourceAlpha" type="matrix" values="0 0 0 0 0 0 0 0 0 0 0 0 0 0 0 0 0 0 127 0" result="hardAlpha"/>
<feOffset/>
<feGaussianBlur stdDeviation="10"/>
<feComposite in2="hardAlpha" operator="out"/>
<feColorMatrix type="matrix" values="0 0 0 0 0.478431 0 0 0 0 0.360784 0 0 0 0 1 0 0 0 0.5 0"/>
<feBlend mode="normal" in2="effect1_dropShadow_210_2854" result="effect2_dropShadow_210_2854"/>
<feBlend mode="normal" in="SourceGraphic" in2="effect2_dropShadow_210_2854" result="shape"/>
</filter>
<filter id="filter18_dd_210_2854" x="431.67" y="76.2798" width="84.8701" height="89.8599" filterUnits="userSpaceOnUse" color-interpolation-filters="sRGB">
<feFlood flood-opacity="0" result="BackgroundImageFix"/>
<feColorMatrix in="SourceAlpha" type="matrix" values="0 0 0 0 0 0 0 0 0 0 0 0 0 0 0 0 0 0 127 0" result="hardAlpha"/>
<feOffset/>
<feGaussianBlur stdDeviation="6"/>
<feComposite in2="hardAlpha" operator="out"/>
<feColorMatrix type="matrix" values="0 0 0 0 0.478431 0 0 0 0 0.360784 0 0 0 0 1 0 0 0 1 0"/>
<feBlend mode="normal" in2="BackgroundImageFix" result="effect1_dropShadow_210_2854"/>
<feColorMatrix in="SourceAlpha" type="matrix" values="0 0 0 0 0 0 0 0 0 0 0 0 0 0 0 0 0 0 127 0" result="hardAlpha"/>
<feOffset/>
<feGaussianBlur stdDeviation="10"/>
<feComposite in2="hardAlpha" operator="out"/>
<feColorMatrix type="matrix" values="0 0 0 0 0.478431 0 0 0 0 0.360784 0 0 0 0 1 0 0 0 0.5 0"/>
<feBlend mode="normal" in2="effect1_dropShadow_210_2854" result="effect2_dropShadow_210_2854"/>
<feBlend mode="normal" in="SourceGraphic" in2="effect2_dropShadow_210_2854" result="shape"/>
</filter>
<filter id="filter19_dd_210_2854" x="502.66" y="73.21" width="89.8545" height="94.3301" filterUnits="userSpaceOnUse" color-interpolation-filters="sRGB">
<feFlood flood-opacity="0" result="BackgroundImageFix"/>
<feColorMatrix in="SourceAlpha" type="matrix" values="0 0 0 0 0 0 0 0 0 0 0 0 0 0 0 0 0 0 127 0" result="hardAlpha"/>
<feOffset/>
<feGaussianBlur stdDeviation="6"/>
<feComposite in2="hardAlpha" operator="out"/>
<feColorMatrix type="matrix" values="0 0 0 0 0.478431 0 0 0 0 0.360784 0 0 0 0 1 0 0 0 1 0"/>
<feBlend mode="normal" in2="BackgroundImageFix" result="effect1_dropShadow_210_2854"/>
<feColorMatrix in="SourceAlpha" type="matrix" values="0 0 0 0 0 0 0 0 0 0 0 0 0 0 0 0 0 0 127 0" result="hardAlpha"/>
<feOffset/>
<feGaussianBlur stdDeviation="10"/>
<feComposite in2="hardAlpha" operator="out"/>
<feColorMatrix type="matrix" values="0 0 0 0 0.478431 0 0 0 0 0.360784 0 0 0 0 1 0 0 0 0.5 0"/>
<feBlend mode="normal" in2="effect1_dropShadow_210_2854" result="effect2_dropShadow_210_2854"/>
<feBlend mode="normal" in="SourceGraphic" in2="effect2_dropShadow_210_2854" result="shape"/>
</filter>
<filter id="filter20_dd_210_2854" x="557.891" y="73.1899" width="90.54" height="94.3398" filterUnits="userSpaceOnUse" color-interpolation-filters="sRGB">
<feFlood flood-opacity="0" result="BackgroundImageFix"/>
<feColorMatrix in="SourceAlpha" type="matrix" values="0 0 0 0 0 0 0 0 0 0 0 0 0 0 0 0 0 0 127 0" result="hardAlpha"/>
<feOffset/>
<feGaussianBlur stdDeviation="6"/>
<feComposite in2="hardAlpha" operator="out"/>
<feColorMatrix type="matrix" values="0 0 0 0 0.478431 0 0 0 0 0.360784 0 0 0 0 1 0 0 0 1 0"/>
<feBlend mode="normal" in2="BackgroundImageFix" result="effect1_dropShadow_210_2854"/>
<feColorMatrix in="SourceAlpha" type="matrix" values="0 0 0 0 0 0 0 0 0 0 0 0 0 0 0 0 0 0 127 0" result="hardAlpha"/>
<feOffset/>
<feGaussianBlur stdDeviation="10"/>
<feComposite in2="hardAlpha" operator="out"/>
<feColorMatrix type="matrix" values="0 0 0 0 0.478431 0 0 0 0 0.360784 0 0 0 0 1 0 0 0 0.5 0"/>
<feBlend mode="normal" in2="effect1_dropShadow_210_2854" result="effect2_dropShadow_210_2854"/>
<feBlend mode="normal" in="SourceGraphic" in2="effect2_dropShadow_210_2854" result="shape"/>
</filter>
<filter id="filter21_dd_210_2854" x="32.9805" y="42.98" width="124.55" height="124.55" filterUnits="userSpaceOnUse" color-interpolation-filters="sRGB">
<feFlood flood-opacity="0" result="BackgroundImageFix"/>
<feColorMatrix in="SourceAlpha" type="matrix" values="0 0 0 0 0 0 0 0 0 0 0 0 0 0 0 0 0 0 127 0" result="hardAlpha"/>
<feOffset/>
<feGaussianBlur stdDeviation="6"/>
<feComposite in2="hardAlpha" operator="out"/>
<feColorMatrix type="matrix" values="0 0 0 0 0.478431 0 0 0 0 0.360784 0 0 0 0 1 0 0 0 1 0"/>
<feBlend mode="normal" in2="BackgroundImageFix" result="effect1_dropShadow_210_2854"/>
<feColorMatrix in="SourceAlpha" type="matrix" values="0 0 0 0 0 0 0 0 0 0 0 0 0 0 0 0 0 0 127 0" result="hardAlpha"/>
<feOffset/>
<feGaussianBlur stdDeviation="10"/>
<feComposite in2="hardAlpha" operator="out"/>
<feColorMatrix type="matrix" values="0 0 0 0 0.478431 0 0 0 0 0.360784 0 0 0 0 1 0 0 0 0.5 0"/>
<feBlend mode="normal" in2="effect1_dropShadow_210_2854" result="effect2_dropShadow_210_2854"/>
<feBlend mode="normal" in="SourceGraphic" in2="effect2_dropShadow_210_2854" result="shape"/>
</filter>
<filter id="filter22_dd_210_2854" x="28" y="38" width="44.9805" height="44.98" filterUnits="userSpaceOnUse" color-interpolation-filters="sRGB">
<feFlood flood-opacity="0" result="BackgroundImageFix"/>
<feColorMatrix in="SourceAlpha" type="matrix" values="0 0 0 0 0 0 0 0 0 0 0 0 0 0 0 0 0 0 127 0" result="hardAlpha"/>
<feOffset/>
<feGaussianBlur stdDeviation="6"/>
<feComposite in2="hardAlpha" operator="out"/>
<feColorMatrix type="matrix" values="0 0 0 0 0.478431 0 0 0 0 0.360784 0 0 0 0 1 0 0 0 1 0"/>
<feBlend mode="normal" in2="BackgroundImageFix" result="effect1_dropShadow_210_2854"/>
<feColorMatrix in="SourceAlpha" type="matrix" values="0 0 0 0 0 0 0 0 0 0 0 0 0 0 0 0 0 0 127 0" result="hardAlpha"/>
<feOffset/>
<feGaussianBlur stdDeviation="10"/>
<feComposite in2="hardAlpha" operator="out"/>
<feColorMatrix type="matrix" values="0 0 0 0 0.478431 0 0 0 0 0.360784 0 0 0 0 1 0 0 0 0.5 0"/>
<feBlend mode="normal" in2="effect1_dropShadow_210_2854" result="effect2_dropShadow_210_2854"/>
<feBlend mode="normal" in="SourceGraphic" in2="effect2_dropShadow_210_2854" result="shape"/>
</filter>
</defs>
</svg>
