<svg width="631" height="133" viewBox="0 0 631 133" fill="none" xmlns="http://www.w3.org/2000/svg">
<path d="M10.34 122.41V103.73H19.68V66.37H29.02V38.35H38.36V10.34H29.02V1H113.07V10.34H122.41V47.7H113.07V57.04H103.73V66.38H94.39V47.7H103.73V19.68H94.39V10.34H57.03V38.36H47.69V66.38H38.35V75.72H66.37V85.06H75.71V94.4H85.05V103.74H94.39V113.08H103.73V122.42H113.07V131.76H85.05V122.42H75.71V113.08H66.37V103.74H57.03V94.4H47.69V85.06H38.35V103.74H29.01V122.42H38.35V131.76H1V122.42H10.34V122.41ZM94.39 66.37V75.71H66.37V66.37H94.39Z" fill="#FCF3FF" stroke="#FCF3FF" stroke-width="2" stroke-miterlimit="10"/>
<path d="M141.08 113.07V75.7096H150.42V57.0296H159.76V47.6896H178.44V57.0296H169.1V75.7096H159.76V94.3896H178.44V103.73H159.76V113.07H169.1V122.41H197.12V131.75H159.76V122.41H150.42V113.07H141.08ZM206.46 75.7096V47.6896H178.44V38.3496H215.8V47.6896H225.14V75.7096H215.8V85.0496H197.12V75.7096H206.46ZM197.12 85.0496V94.3896H178.44V85.0496H197.12ZM215.8 113.07V122.41H197.12V113.07H215.8ZM225.14 103.73V113.07H215.8V103.73H225.14Z" fill="#FCF3FF"/>
<path d="M178.44 47.6896H159.76V57.0296H150.42V75.7096H141.08V113.07H150.42V122.41H159.76V131.75H197.12V122.41M178.44 47.6896V57.0296H169.1V75.7096H159.76V94.3896H178.44M178.44 47.6896H206.46V75.7096H197.12V85.0496M178.44 47.6896V38.3496H215.8V47.6896H225.14V75.7096H215.8V85.0496H197.12M178.44 94.3896V103.73H159.76V113.07H169.1V122.41H197.12M178.44 94.3896H197.12V85.0496M178.44 94.3896V85.0496H197.12M197.12 122.41H215.8V113.07M197.12 122.41V113.07H215.8M215.8 113.07H225.14V103.73H215.8V113.07Z" stroke="#FCF3FF" stroke-width="2" stroke-miterlimit="10"/>
<path d="M243.81 122.41V85.0496H253.15V66.3696H262.49V57.0296H281.17V66.3696H271.83V85.0496H262.49V113.07H271.83V122.41H290.51V131.75H253.15V122.41H243.81ZM299.85 47.6996V57.0396H281.17V47.6996H299.85ZM299.85 113.07V122.41H290.51V113.07H299.85ZM309.18 103.73V94.3896H318.52V75.7096H327.86V47.6896H299.84V38.3496H346.54V75.7096H337.2V103.73H327.86V122.41H337.2V131.75H309.18V113.07H299.84V103.73H309.18ZM346.54 113.07V122.41H337.2V113.07H346.54Z" fill="#FCF3FF"/>
<path d="M290.51 122.41H271.83V113.07H262.49V85.0496H271.83V66.3696H281.17V57.0296H262.49V66.3696H253.15V85.0496H243.81V122.41H253.15V131.75H290.51V122.41ZM290.51 122.41H299.85V113.07H290.51V122.41ZM337.2 122.41H327.86V103.73H337.2V75.7096H346.54V38.3496H299.84V47.6896H327.86V75.7096H318.52V94.3896H309.18V103.73H299.84V113.07H309.18V131.75H337.2V122.41ZM337.2 122.41H346.54V113.07H337.2V122.41ZM299.85 47.6996V57.0396H281.17V47.6996H299.85Z" stroke="#FCF3FF" stroke-width="2" stroke-miterlimit="10"/>
<path d="M374.56 122.41V103.73H383.9V75.71H393.24V38.35H402.58V10.34H393.24V1H430.6V10.34H421.26V38.36H411.92V75.72H402.58V103.74H393.24V122.42H449.28V113.08H458.62V131.76H365.23V122.42H374.57L374.56 122.41ZM467.95 94.39V113.07H458.61V94.39H467.95Z" fill="#FCF3FF" stroke="#FCF3FF" stroke-width="2" stroke-miterlimit="10"/>
<path d="M540.99 69.5C545.446 69.5 549.432 70.3369 552.946 71.9912V71.9922C556.476 73.6638 559.449 75.9019 561.892 78.7363V78.7373C564.337 81.5653 566.207 84.8788 567.518 88.6641C568.828 92.4479 569.48 96.4621 569.48 100.71C569.48 104.959 568.828 109.053 567.518 112.836C566.207 116.62 564.327 119.934 561.892 122.763C559.449 125.588 556.477 127.825 552.95 129.456L552.949 129.457C549.434 131.092 545.458 131.91 540.99 131.91C536.523 131.91 532.546 131.092 529.031 129.457C525.502 127.815 522.52 125.587 520.089 122.764L520.088 122.763C517.643 119.935 515.774 116.631 514.463 112.837V112.836L514.225 112.124C513.073 108.547 512.5 104.74 512.5 100.71C512.5 96.4128 513.152 92.4586 514.463 88.6641C515.774 84.8789 517.643 81.5652 520.088 78.7373C522.531 75.9118 525.505 73.6635 529.034 71.9922C532.548 70.3283 536.533 69.5 540.99 69.5ZM540.99 77.1504C537.908 77.1504 535.186 77.7334 532.857 78.918L532.398 79.1621C529.98 80.4999 528.02 82.2937 526.506 84.5293V84.5303C525.001 86.7615 523.888 89.2854 523.175 92.1074C522.454 94.9183 522.1 97.7796 522.1 100.71C522.1 103.641 522.455 106.503 523.176 109.314C523.899 112.134 525.001 114.658 526.506 116.89C528.021 119.137 529.991 120.92 532.397 122.257C534.826 123.606 537.703 124.27 540.99 124.27C544.073 124.27 546.785 123.686 549.12 122.502L549.582 122.258L549.583 122.257C551.99 120.92 553.959 119.127 555.474 116.891C556.979 114.669 558.091 112.134 558.804 109.313L558.805 109.314C559.525 106.503 559.88 103.641 559.88 100.71C559.88 97.779 559.525 94.9169 558.805 92.1055C558.082 89.2859 556.98 86.7623 555.475 84.5303L555.474 84.5293C553.959 82.2932 551.99 80.5003 549.583 79.1631L549.582 79.1621C547.145 77.8138 544.278 77.1504 540.99 77.1504Z" fill="#FCF3FF" stroke="#FCF3FF"/>
<path d="M608.561 70.9404C615.17 70.9405 620.031 72.3691 623.233 75.1387C626.435 77.9074 628.061 81.7793 628.061 86.8008C628.061 89.6365 627.646 91.9501 626.834 93.7549C626.001 95.6063 625.041 97.0834 623.962 98.1914C622.862 99.3202 621.791 100.109 620.76 100.587C619.662 101.096 618.873 101.425 618.392 101.586L618.05 101.7V102.673L618.489 102.727C619.33 102.829 620.263 103.103 621.271 103.539C622.237 103.957 623.161 104.632 624.021 105.577C624.762 106.393 625.407 107.438 625.947 108.716L626.173 109.278C626.735 110.785 627.03 112.7 627.03 115.03C627.03 118.615 627.302 121.887 627.849 124.832C628.293 127.225 628.94 129.123 629.826 130.471H619.767C619.102 129.301 618.703 128.015 618.578 126.606C618.439 125.04 618.37 123.525 618.37 122.07C618.37 119.63 618.239 117.473 617.975 115.608L617.854 114.826C617.505 112.764 616.863 111.033 615.903 109.63H615.904C614.945 108.212 613.632 107.18 611.984 106.525H611.983C610.354 105.874 608.286 105.561 605.82 105.561H589.72V130.48H580.12V70.9404H608.561ZM589.74 98.4902H607.62C611.083 98.4902 613.794 97.6632 615.669 95.9385C617.554 94.204 618.46 91.629 618.46 88.3203C618.46 86.3574 618.175 84.7074 617.563 83.3984L617.562 83.3975L617.326 82.9297C616.751 81.8678 616.003 81.0035 615.063 80.3584C614.01 79.6348 612.812 79.1594 611.479 78.918C610.177 78.6822 608.827 78.5703 607.45 78.5703H589.74V98.4902Z" fill="#FCF3FF" stroke="#FCF3FF"/>
</svg>
