<svg width="702" height="540" viewBox="0 0 702 540" fill="none" xmlns="http://www.w3.org/2000/svg">
<path d="M107.77 377.76L31 377.76L31 301L39.1201 301L39.1201 361.63L43.13 361.63L43.13 357.53L47.14 357.53L47.14 353.51L51.2401 353.51L51.2401 349.5L55.25 349.5L55.25 345.4L59.27 345.4L59.27 341.39L63.3701 341.39L63.3701 337.38L67.38 337.38L67.38 333.36L71.39 333.36L71.39 329.26L75.4901 329.26L75.4901 325.25L79.5 325.25L79.5 321.24L83.52 321.24L83.52 317.14L87.53 317.14L87.53 313.13L91.63 313.13L91.63 309.12L95.64 309.12L95.64 305.02L99.65 305.02L99.65 301L107.77 301L107.77 309.12L103.75 309.12L103.75 313.13L99.65 313.13L99.65 317.14L95.64 317.14L95.64 321.24L91.63 321.24L91.63 325.25L87.53 325.25L87.53 329.26L83.52 329.26L83.52 333.36L79.5 333.36L79.5 337.38L75.4901 337.38L75.4901 341.39L71.39 341.39L71.39 345.4L67.38 345.4L67.38 349.5L63.3701 349.5L63.3701 353.51L59.27 353.51L59.27 357.53L55.25 357.53L55.25 361.63L51.2401 361.63L51.2401 365.64L47.14 365.64L47.14 369.65L107.77 369.65L107.77 377.76Z" fill="#FCF3FF"/>
<g filter="url(#filter0_dd_195_41)">
<path d="M231.34 499.41V480.73H240.68V443.37H250.02V415.35H259.36V387.34H250.02V378H343.41V406.02H334.07V396.68H324.73V387.34H278.03V415.36H268.69V443.38H296.71V434.04H306.05V462.06H296.71V452.72H259.35V480.74H250.01V499.42H259.35V508.76H222V499.42H231.34V499.41Z" fill="#FCF3FF" stroke="#FCF3FF" stroke-width="2" stroke-miterlimit="10"/>
<path d="M324.73 499.41V462.05H334.07V443.37H343.41V434.03H362.09V443.37H352.75V462.05H343.41V490.07H352.75V499.41H371.43V508.75H334.07V499.41H324.73ZM380.76 424.7V434.04H362.08V424.7H380.76ZM380.76 490.07V499.41H371.42V490.07H380.76ZM390.1 480.73V471.39H399.44V452.71H408.78V424.69H380.76V415.35H427.46V452.71H418.12V480.73H408.78V499.41H418.12V508.75H390.1V490.07H380.76V480.73H390.1ZM427.46 490.07V499.41H418.12V490.07H427.46Z" fill="#FCF3FF"/>
<path d="M380.76 490.07V499.41H371.42V490.07H380.76ZM380.76 490.07H390.1V508.75H418.12V499.41M380.76 490.07V480.73H390.1V471.39H399.44V452.71H408.78V424.69H380.76V415.35H427.46V452.71H418.12V480.73H408.78V499.41H418.12M418.12 499.41H427.46V490.07H418.12V499.41ZM324.73 499.41V462.05H334.07V443.37H343.41V434.03H362.09V443.37H352.75V462.05H343.41V490.07H352.75V499.41H371.43V508.75H334.07V499.41H324.73ZM380.76 424.7V434.04H362.08V424.7H380.76Z" stroke="#FCF3FF" stroke-width="2" stroke-miterlimit="10"/>
<path d="M455.47 499.41V480.73H464.81V452.71H474.15V415.35H483.49V387.34H474.15V378H511.51V387.34H502.17V415.36H492.83V443.38H502.17V434.04H511.51V452.72H520.85V462.06H530.19V471.4H539.53V480.74H548.87V490.08H558.21V499.42H567.55V508.76H539.53V499.42H530.19V490.08H520.85V480.74H511.51V471.4H502.17V462.06H492.83V452.72H483.49V480.74H474.15V499.42H483.49V508.76H446.13V499.42H455.47V499.41ZM520.85 424.7V434.04H511.51V424.7H520.85ZM530.19 415.36V424.7H520.85V415.36H530.19ZM539.53 406.02V415.36H530.19V406.02H539.53ZM539.53 387.34V378H576.89V387.34H558.21V396.68H548.87V387.34H539.53ZM548.86 396.68V406.02H539.52V396.68H548.86ZM576.88 490.07V499.41H567.54V490.07H576.88Z" fill="#FCF3FF"/>
<path d="M511.51 434.04H502.17V443.38H492.83V415.36H502.17V387.34H511.51V378H474.15V387.34H483.49V415.35H474.15V452.71H464.81V480.73H455.47V499.41V499.42H446.13V508.76H483.49V499.42H474.15V480.74H483.49V452.72H492.83V462.06H502.17V471.4H511.51V480.74H520.85V490.08H530.19V499.42H539.53V508.76H567.55V499.42H558.21V490.08H548.87V480.74H539.53V471.4H530.19V462.06H520.85V452.72H511.51V434.04ZM511.51 434.04H520.85V424.7M511.51 434.04V424.7H520.85M520.85 424.7H530.19V415.36M520.85 424.7V415.36H530.19M530.19 415.36H539.53V406.02H530.19V415.36ZM539.53 387.34V378H576.89V387.34H558.21V396.68H548.87V387.34H539.53ZM548.86 396.68V406.02H539.52V396.68H548.86ZM576.88 490.07V499.41H567.54V490.07H576.88Z" stroke="#FCF3FF" stroke-width="2" stroke-miterlimit="10"/>
<path d="M586.22 490.07V452.71H595.56V434.03H604.9V424.69H623.58V434.03H614.24V452.71H604.9V471.39H623.58V480.73H604.9V490.07H614.24V499.41H642.26V508.75H604.9V499.41H595.56V490.07H586.22ZM651.59 452.71V424.69H623.57V415.35H660.93V424.69H670.27V452.71H660.93V462.05H642.25V452.71H651.59ZM642.25 462.05V471.39H623.57V462.05H642.25ZM660.93 490.07V499.41H642.25V490.07H660.93ZM670.27 480.73V490.07H660.93V480.73H670.27Z" fill="#FCF3FF"/>
<path d="M642.25 462.05H660.93V452.71H670.27V424.69H660.93V415.35H623.57V424.69H651.59V452.71H642.25V462.05ZM642.25 462.05V471.39H623.57V462.05H642.25ZM660.93 490.07V499.41H642.25V490.07H660.93ZM660.93 490.07H670.27V480.73H660.93V490.07ZM586.22 490.07V452.71H595.56V434.03H604.9V424.69H623.58V434.03H614.24V452.71H604.9V471.39H623.58V480.73H604.9V490.07H614.24V499.41H642.26V508.75H604.9V499.41H595.56V490.07H586.22Z" stroke="#FCF3FF" stroke-width="2" stroke-miterlimit="10"/>
</g>
<g filter="url(#filter1_dd_195_41)">
<path d="M40.34 152.41V133.73H49.68V96.37H59.02V68.35H68.36V40.34H59.02V31H143.07V40.34H152.41V77.7H143.07V87.04H133.73V96.38H124.39V77.7H133.73V49.68H124.39V40.34H87.03V68.36H77.69V96.38H68.35V105.72H96.37V115.06H105.71V124.4H115.05V133.74H124.39V143.08H133.73V152.42H143.07V161.76H115.05V152.42H105.71V143.08H96.37V133.74H87.03V124.4H77.69V115.06H68.35V133.74H59.01V152.42H68.35V161.76H31V152.42H40.34V152.41ZM124.39 96.37V105.71H96.37V96.37H124.39Z" fill="#FCF3FF" stroke="#FCF3FF" stroke-width="2" stroke-miterlimit="10"/>
<path d="M171.08 143.07V105.71H180.42V87.0296H189.76V77.6896H208.44V87.0296H199.1V105.71H189.76V124.39H208.44V133.73H189.76V143.07H199.1V152.41H227.12V161.75H189.76V152.41H180.42V143.07H171.08ZM236.46 105.71V77.6896H208.44V68.3496H245.8V77.6896H255.14V105.71H245.8V115.05H227.12V105.71H236.46ZM227.12 115.05V124.39H208.44V115.05H227.12ZM245.8 143.07V152.41H227.12V143.07H245.8ZM255.14 133.73V143.07H245.8V133.73H255.14Z" fill="#FCF3FF"/>
<path d="M208.44 77.6896H189.76V87.0296H180.42V105.71H171.08V143.07H180.42V152.41H189.76V161.75H227.12V152.41M208.44 77.6896V87.0296H199.1V105.71H189.76V124.39H208.44M208.44 77.6896H236.46V105.71H227.12V115.05M208.44 77.6896V68.3496H245.8V77.6896H255.14V105.71H245.8V115.05H227.12M208.44 124.39V133.73H189.76V143.07H199.1V152.41H227.12M208.44 124.39H227.12V115.05M208.44 124.39V115.05H227.12M227.12 152.41H245.8V143.07M227.12 152.41V143.07H245.8M245.8 143.07H255.14V133.73H245.8V143.07Z" stroke="#FCF3FF" stroke-width="2" stroke-miterlimit="10"/>
<path d="M273.81 152.41V115.05H283.15V96.3696H292.49V87.0296H311.17V96.3696H301.83V115.05H292.49V143.07H301.83V152.41H320.51V161.75H283.15V152.41H273.81ZM329.85 77.6996V87.0396H311.17V77.6996H329.85ZM329.85 143.07V152.41H320.51V143.07H329.85ZM339.18 133.73V124.39H348.52V105.71H357.86V77.6896H329.84V68.3496H376.54V105.71H367.2V133.73H357.86V152.41H367.2V161.75H339.18V143.07H329.84V133.73H339.18ZM376.54 143.07V152.41H367.2V143.07H376.54Z" fill="#FCF3FF"/>
<path d="M320.51 152.41H301.83V143.07H292.49V115.05H301.83V96.3696H311.17V87.0296H292.49V96.3696H283.15V115.05H273.81V152.41H283.15V161.75H320.51V152.41ZM320.51 152.41H329.85V143.07H320.51V152.41ZM367.2 152.41H357.86V133.73H367.2V105.71H376.54V68.3496H329.84V77.6896H357.86V105.71H348.52V124.39H339.18V133.73H329.84V143.07H339.18V161.75H367.2V152.41ZM367.2 152.41H376.54V143.07H367.2V152.41ZM329.85 77.6996V87.0396H311.17V77.6996H329.85Z" stroke="#FCF3FF" stroke-width="2" stroke-miterlimit="10"/>
<path d="M404.56 152.41V133.73H413.9V105.71H423.24V68.35H432.58V40.34H423.24V31H460.6V40.34H451.26V68.36H441.92V105.72H432.58V133.74H423.24V152.42H479.28V143.08H488.62V161.76H395.23V152.42H404.57L404.56 152.41ZM497.95 124.39V143.07H488.61V124.39H497.95Z" fill="#FCF3FF" stroke="#FCF3FF" stroke-width="2" stroke-miterlimit="10"/>
</g>
<path d="M318.99 245.5C323.446 245.5 327.432 246.337 330.946 247.991V247.992C334.476 249.664 337.449 251.902 339.892 254.736V254.737C342.337 257.565 344.207 260.879 345.518 264.664C346.828 268.448 347.48 272.462 347.48 276.71C347.48 280.959 346.828 285.053 345.518 288.836C344.207 292.62 342.327 295.934 339.892 298.763C337.449 301.588 334.477 303.825 330.95 305.456L330.949 305.457C327.434 307.092 323.458 307.91 318.99 307.91C314.523 307.91 310.546 307.092 307.031 305.457C303.502 303.815 300.52 301.587 298.089 298.764L298.088 298.763C295.643 295.935 293.774 292.631 292.463 288.837V288.836L292.225 288.124C291.073 284.547 290.5 280.74 290.5 276.71C290.5 272.413 291.152 268.459 292.463 264.664C293.774 260.879 295.643 257.565 298.088 254.737C300.531 251.912 303.505 249.664 307.034 247.992C310.548 246.328 314.533 245.5 318.99 245.5ZM318.99 253.15C315.908 253.15 313.186 253.733 310.857 254.918L310.398 255.162C307.98 256.5 306.02 258.294 304.506 260.529V260.53C303.001 262.761 301.888 265.285 301.175 268.107C300.454 270.918 300.1 273.78 300.1 276.71C300.1 279.641 300.455 282.503 301.176 285.314C301.899 288.134 303.001 290.658 304.506 292.89C306.021 295.137 307.991 296.92 310.397 298.257C312.826 299.606 315.703 300.27 318.99 300.27C322.073 300.27 324.785 299.686 327.12 298.502L327.582 298.258L327.583 298.257C329.99 296.92 331.959 295.127 333.474 292.891C334.979 290.669 336.091 288.134 336.804 285.313L336.805 285.314C337.525 282.503 337.88 279.641 337.88 276.71C337.88 273.779 337.525 270.917 336.805 268.105C336.082 265.286 334.98 262.762 333.475 260.53L333.474 260.529C331.959 258.293 329.99 256.5 327.583 255.163L327.582 255.162C325.145 253.814 322.278 253.15 318.99 253.15Z" fill="#FCF3FF" stroke="#FCF3FF"/>
<path d="M386.561 246.94C393.17 246.94 398.031 248.369 401.233 251.139C404.435 253.907 406.061 257.779 406.061 262.801C406.061 265.636 405.646 267.95 404.834 269.755C404.001 271.606 403.041 273.083 401.962 274.191C400.862 275.32 399.791 276.109 398.76 276.587C397.662 277.096 396.873 277.425 396.392 277.586L396.05 277.7V278.673L396.489 278.727C397.33 278.829 398.263 279.103 399.271 279.539C400.237 279.957 401.161 280.632 402.021 281.577C402.762 282.393 403.407 283.438 403.947 284.716L404.173 285.278C404.735 286.785 405.03 288.7 405.03 291.03C405.03 294.615 405.302 297.887 405.849 300.832C406.293 303.225 406.94 305.123 407.826 306.471H397.767C397.102 305.301 396.703 304.015 396.578 302.606C396.439 301.04 396.37 299.525 396.37 298.07C396.37 295.63 396.239 293.473 395.975 291.608L395.854 290.826C395.505 288.764 394.863 287.033 393.903 285.63H393.904C392.945 284.212 391.632 283.18 389.984 282.525H389.983C388.354 281.874 386.286 281.561 383.82 281.561H367.72V306.48H358.12V246.94H386.561ZM367.74 274.49H385.62C389.083 274.49 391.794 273.663 393.669 271.938C395.554 270.204 396.46 267.629 396.46 264.32C396.46 262.357 396.175 260.707 395.563 259.398L395.562 259.397L395.326 258.93C394.751 257.868 394.003 257.003 393.063 256.358C392.01 255.635 390.812 255.159 389.479 254.918C388.177 254.682 386.827 254.57 385.45 254.57H367.74V274.49Z" fill="#FCF3FF" stroke="#FCF3FF"/>
<path d="M604 162H680.77V238.76H672.65V178.13H668.64V182.23H664.63V186.25H660.53V190.26H656.52V194.36H652.5V198.37H648.4V202.38H644.39V206.4H640.38V210.5H636.28V214.51H632.27V218.52H628.25V222.62H624.24V226.63H620.14V230.64H616.13V234.74H612.12V238.76H604V230.64H608.02V226.63H612.12V222.62H616.13V218.52H620.14V214.51H624.24V210.5H628.25V206.4H632.27V202.38H636.28V198.37H640.38V194.36H644.39V190.26H648.4V186.25H652.5V182.23H656.52V178.13H660.53V174.12H664.63V170.11H604V162Z" fill="#FCF3FF"/>
<defs>
<filter id="filter0_dd_195_41" x="191" y="347" width="510.27" height="192.76" filterUnits="userSpaceOnUse" color-interpolation-filters="sRGB">
<feFlood flood-opacity="0" result="BackgroundImageFix"/>
<feColorMatrix in="SourceAlpha" type="matrix" values="0 0 0 0 0 0 0 0 0 0 0 0 0 0 0 0 0 0 127 0" result="hardAlpha"/>
<feOffset/>
<feGaussianBlur stdDeviation="6"/>
<feComposite in2="hardAlpha" operator="out"/>
<feColorMatrix type="matrix" values="0 0 0 0 0.478431 0 0 0 0 0.360784 0 0 0 0 1 0 0 0 0.25 0"/>
<feBlend mode="normal" in2="BackgroundImageFix" result="effect1_dropShadow_195_41"/>
<feColorMatrix in="SourceAlpha" type="matrix" values="0 0 0 0 0 0 0 0 0 0 0 0 0 0 0 0 0 0 127 0" result="hardAlpha"/>
<feOffset/>
<feGaussianBlur stdDeviation="15"/>
<feComposite in2="hardAlpha" operator="out"/>
<feColorMatrix type="matrix" values="0 0 0 0 0.478431 0 0 0 0 0.360784 0 0 0 0 1 0 0 0 0.5 0"/>
<feBlend mode="normal" in2="effect1_dropShadow_195_41" result="effect2_dropShadow_195_41"/>
<feBlend mode="normal" in="SourceGraphic" in2="effect2_dropShadow_195_41" result="shape"/>
</filter>
<filter id="filter1_dd_195_41" x="0" y="0" width="528.95" height="192.76" filterUnits="userSpaceOnUse" color-interpolation-filters="sRGB">
<feFlood flood-opacity="0" result="BackgroundImageFix"/>
<feColorMatrix in="SourceAlpha" type="matrix" values="0 0 0 0 0 0 0 0 0 0 0 0 0 0 0 0 0 0 127 0" result="hardAlpha"/>
<feOffset/>
<feGaussianBlur stdDeviation="6"/>
<feComposite in2="hardAlpha" operator="out"/>
<feColorMatrix type="matrix" values="0 0 0 0 0.478431 0 0 0 0 0.360784 0 0 0 0 1 0 0 0 0.25 0"/>
<feBlend mode="normal" in2="BackgroundImageFix" result="effect1_dropShadow_195_41"/>
<feColorMatrix in="SourceAlpha" type="matrix" values="0 0 0 0 0 0 0 0 0 0 0 0 0 0 0 0 0 0 127 0" result="hardAlpha"/>
<feOffset/>
<feGaussianBlur stdDeviation="15"/>
<feComposite in2="hardAlpha" operator="out"/>
<feColorMatrix type="matrix" values="0 0 0 0 0.478431 0 0 0 0 0.360784 0 0 0 0 1 0 0 0 0.5 0"/>
<feBlend mode="normal" in2="effect1_dropShadow_195_41" result="effect2_dropShadow_195_41"/>
<feBlend mode="normal" in="SourceGraphic" in2="effect2_dropShadow_195_41" result="shape"/>
</filter>
</defs>
</svg>
